# xmcd
#
# Track frame offsets:
#	150
#	19493
#	43837
#	60252
#	79393
#	93149
#	111330
#	128129
#	149929
#	165326
#	179274
#	196898
#	215454
#	233866
#
# Disc length: 3244 seconds
#
# Revision: 0
# Processed by: cddbd v1.5.1PL0 Copyright (c) Steve Scherf et al.
# Submitted via: audiograbber 1.83.01
#
DISCID=c60caa0e
DTITLE=Souls of Mischief - 93' til Infinity
DYEAR=1900
DGENRE=
TTITLE0=Let'em Know
TTITLE1=Live and Let Die
TTITLE2=That's When Ya Lost
TTITLE3=Name I Call Myself
TTITLE4=Disseshowedo
TTITLE5=What a Way To Go Out
TTITLE6=Never No More
TTITLE7='93 'Til Infinity
TTITLE8=Limitations
TTITLE9=Anything Can Happen
TTITLE10=Make Your Mind Up
TTITLE11=Batting PracticeTrack 12
TTITLE12=Tell Me Who Profits
TTITLE13=Outro
EXTD=
EXTT0=
EXTT1=
EXTT2=
EXTT3=
EXTT4=
EXTT5=
EXTT6=
EXTT7=
EXTT8=
EXTT9=
EXTT10=
EXTT11=
EXTT12=
EXTT13=
PLAYORDER=
